<svg width="140" height="66" viewBox="0 0 140 66" fill="none" xmlns="http://www.w3.org/2000/svg">
<path d="M13.9326 39.4361C11.7405 39.8757 8.93056 40.8858 8.65371 41.3337C8.56562 41.4762 8.92764 41.5618 9.61887 41.5618C12.7207 41.5618 14.9744 42.5563 16.8865 44.769C18.0809 46.1507 18.2023 46.2358 18.2023 45.6921C18.2023 44.7708 17.3139 43.2014 16.2238 42.1969C15.6823 41.6977 15.3243 41.2077 15.4285 41.1082C15.7355 40.815 18.2881 40.5093 19.7027 40.5962C21.3018 40.6946 22.502 40.9981 23.778 41.6272C24.6079 42.036 24.7769 42.0576 24.9544 41.777C25.5434 40.8462 24.6604 40.2233 21.653 39.4468C19.9843 39.0162 16.053 39.0106 13.9326 39.4361Z" fill="#FE0000"/>
<path d="M37.8101 26.2758L37.6715 25.4378C37.5953 24.9771 37.5319 24.2609 37.5306 23.8461C37.5258 22.4148 35.3688 20.4439 33.807 20.4439C33.438 20.4439 32.9762 20.1894 32.5843 19.7699C31.7411 18.8675 31.4607 18.9192 31.4607 19.9773C31.4607 21.1368 32.3065 22.1688 33.4294 22.3793C33.9692 22.4804 34.2766 22.4449 34.3335 22.2746C34.4746 21.8514 35.1701 21.981 35.6631 22.522C36.3721 23.3002 36.5829 23.8365 36.658 25.053L36.727 26.1727L37.8101 26.2758Z" fill="#FCD702"/>
<path d="M23.38 20.9123C21.6573 23.0398 21.6355 23.0657 20.5944 24.1997L19.9528 24.8984L21.4371 25.7519C22.2535 26.2215 22.9214 26.6811 22.9214 26.7734C22.9214 26.866 22.4915 27.0518 21.9663 27.1861C18.2629 28.1346 15.1537 29.1532 15.3533 29.3527C15.4757 29.4754 22.7533 28.9906 24.2697 28.759C25.3679 28.5911 25.6115 28.6314 26.4551 29.1186C27.3829 29.6549 27.5189 29.6675 32.4389 29.6774C37.0746 29.6866 37.6402 29.7317 39.5793 30.2475C40.7378 30.5558 42.6461 31.0599 43.8202 31.3679C45.8613 31.9035 50.627 33.1645 51.573 33.4193C52.8063 33.7515 51.4575 33.1841 48.5393 32.1428C46.7472 31.5032 44.8259 30.7935 44.2697 30.5654C42.5582 29.8638 38.807 28.5112 37.9775 28.2964C37.5449 28.1845 35.8816 28.0906 34.2809 28.0877C30.4874 28.0807 30.8602 27.7208 34.8315 27.5566C38.4852 27.4054 42.3901 27.0628 44.8315 26.6795L46.6292 26.3974L42.2196 26.3365L37.8101 26.2758L36.727 26.1727L33.1207 26.2342L29.5142 26.2958L27.9593 25.1474C27.1043 24.5158 26.1337 23.8387 25.8025 23.6428C24.9373 23.1308 24.8618 22.5213 25.5079 21.2657C25.8155 20.6672 26.0674 20.0512 26.0674 19.8964C26.0674 19.634 25.3766 18.8713 25.1391 18.8713C25.0805 18.8713 24.2888 19.7897 23.38 20.9123Z" fill="#FE0000"/>
<path d="M135.843 8.88434C135.658 8.95601 126.722 10.5095 122.36 11.2282C120.807 11.4841 116.293 12.2886 115 12.54C113.419 12.8473 112.525 13.5804 110.842 15.9501C108.766 18.8713 108.19 19.4871 106.937 20.1217C104.962 21.1222 100.907 22.2223 97.5281 22.6743C96.4775 22.815 95.1124 23.0245 94.4944 23.1405C93.1225 23.3975 88.3344 23.8138 86.751 23.8138C85.6436 23.8138 85.5494 23.7641 84.5133 22.6343C83.9182 21.9857 82.705 20.5955 81.8175 19.5453C81.7001 19.4063 81.5882 19.2735 81.481 19.1463L81.4779 19.1426C80.6331 18.14 80.0824 17.4863 79.4426 16.9362C78.244 15.9059 76.7326 15.2391 72.3902 13.3234C72.0938 13.1926 71.7842 13.0561 71.4607 12.9131C69.6198 12.1001 69.4609 12.07 67.0787 12.0835C63.9751 12.1008 58.0697 13.1205 53.5955 14.4114C50.3157 15.3576 48.8654 15.8009 48.5393 15.957C48.3539 16.0458 47.4757 16.4508 46.5879 16.8572C45.0865 17.544 43.8202 18.446 43.8202 18.8282C43.8202 18.918 44.0766 19.3689 44.3901 19.8302C44.9135 20.6003 45.0463 20.6683 46.0193 20.6657C47.3258 20.6618 54.2245 20.1009 56.9663 19.7753C58.0787 19.6432 60.0396 19.439 61.3236 19.3215C62.6079 19.204 63.7142 19.0524 63.782 18.9843C63.8499 18.9164 63.689 18.7093 63.4245 18.5242C63.16 18.3389 62.8099 18.054 62.647 17.8909C62.4838 17.7278 62.1249 17.4737 61.8492 17.3263C61.5737 17.1789 61.3483 16.91 61.3483 16.7292C61.3483 16.4484 62.2196 16.4001 67.2728 16.4001C70.531 16.4001 73.7344 16.5018 74.391 16.6265C76.9899 17.1192 79.6137 18.8234 81.3056 21.1179C81.8067 21.7975 82.527 22.6505 82.9061 23.0133C83.5771 23.6556 83.7935 24.339 83.4023 24.5805C83.296 24.6464 80.0854 24.5862 76.2674 24.4469C69.3971 24.1964 65.5778 24.3152 66.7178 24.7441C67.3991 25.0004 75.7389 25.3785 80.8989 25.3868C83.0618 25.3904 84.9823 25.4886 85.1665 25.605C85.4587 25.7897 85.4479 25.9071 85.0838 26.5234C84.6753 27.2149 84.6757 27.2432 85.1029 27.8248C85.6299 28.5417 87.8032 29.3262 88.6638 29.1103C89.5054 28.8991 89.2279 28.4808 88.0463 28.1796C86.084 27.6793 86.022 27.331 87.809 26.8442C91.0029 25.9741 93.3638 25.3412 96.1798 24.6005C100.611 23.4346 101.353 23.2211 104.944 22.0756C108.507 20.9386 108.951 20.7479 109.392 20.1631C109.604 19.8811 110.004 19.7699 110.804 19.7699C111.877 19.7699 111.947 19.7304 112.645 18.7264C113.797 17.0695 114.107 16.7256 114.287 16.9046C114.529 17.1462 114.11 17.9596 112.433 20.5028C110.41 23.5705 109.703 24.2051 107.168 25.2276C104.636 26.2495 101.739 27.6494 101.876 27.7855C101.929 27.8394 102.765 27.6251 103.733 27.309C104.701 26.9929 105.628 26.7343 105.793 26.7343C105.959 26.7343 106.032 26.6344 105.957 26.5122C105.877 26.3828 105.972 26.3486 106.185 26.4304C106.386 26.5077 107.074 26.3407 107.713 26.0597C110.297 24.925 111.596 24.2696 112.027 23.8832C112.276 23.6597 112.934 23.0812 113.488 22.5979C114.041 22.1145 115.202 21.0514 116.067 20.2356C116.933 19.4199 118.045 18.4512 118.539 18.083C119.034 17.7148 119.489 17.3558 119.551 17.2852C120.023 16.7454 124.347 14.3781 124.86 14.3781C124.99 14.3781 127.631 13.2645 129.101 12.5903C130.48 11.9574 133.88 10.5589 134.04 10.5589C134.118 10.5589 134.606 10.3673 135.125 10.133C135.643 9.89867 136.447 9.55 136.91 9.35815C137.374 9.16629 137.753 8.95354 137.753 8.88547C137.753 8.74798 136.196 8.74708 135.843 8.88434Z" fill="#FE0000"/>
<path d="M46.0674 21.9961C46.3764 22.249 46.6883 22.4582 46.7605 22.4609C46.8326 22.4636 48.1317 23.1735 49.647 24.0384C51.1625 24.9034 52.4353 25.611 52.4755 25.611C52.516 25.611 53.4288 26.119 54.5041 26.74C56.3663 27.8152 57.227 28.5386 57.9775 29.6592C58.6726 30.6973 60.3007 32.3609 61.0912 32.8408C61.5416 33.1142 61.9607 33.4026 62.0225 33.4815C62.1249 33.6123 63.0479 34.1413 65.8427 35.6715C67.3969 36.5223 71.2364 38.5406 74.7402 40.3489L75.0766 40.5224C78.6547 42.3682 79.645 42.8791 80.2549 43.6794C80.4882 43.9855 80.6659 44.334 80.9115 44.8158L80.9138 44.8203C80.9328 44.8574 80.9521 44.8954 80.9719 44.9341L81.8315 46.6166L81.6996 45.381C81.6267 44.7014 81.3411 43.242 81.0645 42.138C80.5681 40.1552 80.5494 40.124 79.5506 39.5922C78.9944 39.2963 76.5915 38.0517 74.2108 36.8264C71.8301 35.6014 68.1897 33.6752 66.1209 32.5463C64.0521 31.4171 61.2978 29.9368 60 29.2564C58.7023 28.5759 57.5393 27.9453 57.4157 27.8547C57.2921 27.7642 56.1292 27.1338 54.8315 26.454C53.5337 25.7741 51.9157 24.9182 51.236 24.5518C47.618 22.6011 45.5681 21.5876 46.0674 21.9961Z" fill="#FE0000"/>
<path d="M113.371 35.7319C113.124 35.8449 111.202 36.6061 109.101 37.4231C107 38.2404 104.978 39.0425 104.607 39.2053C104.236 39.3682 102.213 40.1754 100.112 40.9988C98.0112 41.8224 95.9888 42.626 95.618 42.7848C95.2472 42.9434 94.5393 43.2285 94.0449 43.4179C91.4225 44.4235 88.0899 45.9361 88.0899 46.121C88.0899 46.2488 89.5326 46.289 91.7416 46.2225L95.3933 46.1125L97.6404 45.0898C98.8764 44.5275 100.697 43.6419 101.685 43.1223C108.672 39.45 110.562 38.6527 110.562 39.3759C110.562 39.9503 107.724 43.9591 107.132 44.2211C107.038 44.2628 106.847 44.5156 106.706 44.7827L106.451 45.2687L106.989 44.8193C109.388 42.8122 114.607 36.4845 114.607 35.5827C114.607 35.4277 113.832 35.5212 113.371 35.7319Z" fill="#FE0000"/>
<path fill-rule="evenodd" clip-rule="evenodd" d="M75.7865 49.5971L75.0562 49.678V57.639V65.6002H78.5283C83.4292 65.6002 85.2384 65.1422 87.1984 63.4053C91.3667 59.7115 90.2299 52.6994 85.0744 50.3032C83.7849 49.7038 83.5052 49.6636 80.1124 49.5922C78.1348 49.5506 76.1883 49.5529 75.7865 49.5971ZM83.7378 61.4016C86.8881 59.7672 86.8984 55.2374 83.7553 53.7162C82.9924 53.3471 82.3519 53.244 80.8209 53.244C79.4339 53.244 78.8299 53.3283 78.7517 53.5325C78.6908 53.6911 78.6685 55.6371 78.7025 57.8572L78.764 61.8934L80.8283 61.8666C82.3984 61.8464 83.0948 61.735 83.7378 61.4016Z" fill="#FE0000"/>
<path fill-rule="evenodd" clip-rule="evenodd" d="M91.7787 49.6308C91.7274 49.6823 91.6854 53.2964 91.6854 57.6624V65.6002H93.4768H95.2683L95.3308 62.5112L95.3933 59.4221L97.4625 59.3577L99.5317 59.2932L99.9847 60.287C100.234 60.8336 100.602 61.7725 100.804 62.3735C101.005 62.9744 101.374 63.9463 101.624 64.5331L102.078 65.6002H104.067C106.038 65.6002 106.055 65.5957 105.859 65.0947C105.751 64.8168 105.147 63.3256 104.517 61.781C103.887 60.2365 103.371 58.8966 103.371 58.8036C103.371 58.7106 103.761 58.2822 104.238 57.8513C104.847 57.3018 105.225 56.69 105.504 55.8031C105.877 54.6167 105.879 54.4561 105.533 53.2153C105.25 52.1958 104.952 51.6995 104.235 51.0516C103.724 50.5895 103.019 50.0909 102.67 49.9438C102.073 49.6922 92.0054 49.4028 91.7787 49.6308ZM102.022 54.4799C102.022 54.0775 101.873 53.6248 101.692 53.4739C101.478 53.2964 100.419 53.1874 98.7 53.1654C98.5671 53.1637 98.4392 53.162 98.3163 53.1603L98.2074 53.1588C96.277 53.1325 95.6028 53.1233 95.3876 53.4329C95.2721 53.5991 95.2887 53.8571 95.3143 54.2536C95.3182 54.3133 95.3222 54.3761 95.3261 54.4421L95.3933 55.6029L98.0813 55.6667C101.349 55.744 102.022 55.5414 102.022 54.4799Z" fill="#FE0000"/>
<path fill-rule="evenodd" clip-rule="evenodd" d="M113.018 49.7167C112.577 49.8649 111.948 50.1635 111.621 50.3796C111.294 50.5957 110.931 50.7728 110.813 50.7728C110.462 50.7728 108.756 52.832 108.199 53.927C106.567 57.1391 107.322 61.1349 110.017 63.5464C112.634 65.8876 115.944 66.3344 119.234 64.7903C122.399 63.3051 124.242 59.4511 123.485 55.9033C123.08 54.0034 122.638 53.1944 121.254 51.8167C119.519 50.0898 118.301 49.5688 115.843 49.5019C114.707 49.4709 113.469 49.565 113.018 49.7167ZM120 57.6922C120 55.7292 119.155 54.3051 117.481 53.4469C115.909 52.641 113.783 52.9666 112.394 54.2262C110.093 56.3117 110.811 60.4816 113.679 61.6871C115.698 62.5356 117.955 61.8399 119.327 59.9465C119.893 59.1647 120 58.8079 120 57.6922Z" fill="#FE0000"/>
<path d="M125.77 49.5724C125.686 49.656 125.618 53.2964 125.618 57.6624V65.6002H127.416H129.214V60.8824C129.214 57.2517 129.278 56.1673 129.494 56.176C129.649 56.1823 130.685 57.5941 131.798 59.3134C132.91 61.0325 134.047 62.7199 134.323 63.0627C134.6 63.4058 135.055 64.117 135.334 64.6434L135.842 65.6002H137.921H140V57.6249V49.6495H138.202H136.405V54.255C136.405 57.7927 136.339 58.8591 136.124 58.8549C135.969 58.8517 134.478 56.7801 132.809 54.2511L129.775 49.6529L128.652 49.6351C128.034 49.6254 127.167 49.5731 126.725 49.519C126.283 49.4648 125.854 49.4888 125.77 49.5724Z" fill="#FE0000"/>
<path fill-rule="evenodd" clip-rule="evenodd" d="M22.378 11.4576C25.6623 7.98256 30.4912 2.74623 31.6562 1.39738C32.4892 0.432472 33.0241 0 33.3838 0C34.0939 0 37.9227 2.30342 39.747 3.82796C41.7605 5.51065 41.8025 5.9631 40.1789 8.48063C38.916 10.4394 38.6025 10.6616 36.7416 10.9191C36.1236 11.0044 35.1823 11.2608 34.6497 11.4883C33.4249 12.0118 30.809 13.7084 30.2461 14.344C29.7957 14.8526 29.4382 14.9726 29.4382 14.6151C29.4382 14.2449 31.4328 12.4998 32.84 11.6389C33.5858 11.1826 34.9712 10.4893 35.9182 10.0982C38.0146 9.23211 38.307 8.98544 39.0978 7.41373C39.5578 6.49959 39.6701 6.04645 39.5299 5.67262C39.3081 5.08132 38.9342 5.04313 37.84 5.50008C36.9784 5.85998 31.4892 9.49451 28.2081 11.8777C24.2274 14.7688 22.6814 15.6973 21.4088 15.9615C19.3942 16.3796 18.7863 16.7487 17.2823 18.4676C13.0519 23.3022 11.0112 25.3397 11.0112 24.7284C11.0112 24.5653 13.3164 21.467 13.6975 21.1179C13.765 21.0561 14.4746 20.2473 15.2744 19.3206C17.1641 17.1309 20.3701 13.5824 22.378 11.4576ZM18.427 19.8751C19.6787 18.8866 22.0861 17.2419 23.8366 16.1788C25.6411 15.0831 26.1838 14.8513 26.0299 15.2424C25.9888 15.3469 24.6643 16.4697 23.0867 17.7375C20.5016 19.8149 16.9658 23.3254 15.0436 25.7234C14.0685 26.9397 13.4939 28.2467 13.4881 29.2618L13.4832 30.1042H21.4299H29.3766L32.6097 32.3867C34.3879 33.6424 36.5 35.1242 37.3034 35.6802C39.76 37.3802 44.6027 41.0386 44.9497 41.4564C45.6744 42.3297 41.8348 40.0507 34.7258 35.3886C32.5049 33.9322 30.382 32.6527 30.0083 32.5456C29.0948 32.2836 18.2638 32.294 18.1014 32.5568C17.929 32.8358 18.5344 33.2847 23.4016 36.4865C25.7052 38.0016 28.269 39.8393 29.0993 40.5701C30.6717 41.9538 32.809 44.359 32.809 44.7443C32.809 44.8667 31.7589 44.0175 30.4753 42.8574C26.5317 39.2923 23.5879 37.4667 15.1975 33.3829C12.2728 31.9595 9.82068 30.6403 9.74809 30.4513C9.4591 29.6983 12.2524 25.9238 15.4966 22.684C16.7993 21.3832 18.118 20.119 18.427 19.8751ZM39.369 20.9759C39.4294 20.0346 39.5355 19.8317 40.2018 19.3842C41.4973 18.5141 43.058 18.9055 42.2369 19.8946C42.0688 20.097 42.0355 20.3141 42.1555 20.4226C42.2679 20.5239 43.1937 21.334 44.2135 22.2228C45.967 23.7509 46.4665 24.4878 45.749 24.4878C45.5739 24.4878 45.3876 24.3615 45.3348 24.2069C45.2604 23.9897 45.0836 23.9832 44.5524 24.1789C43.8829 24.4253 43.8229 24.388 42.118 22.6736C40.4557 21.0017 39.9115 20.6982 40.0501 21.5198C40.0852 21.7272 39.9348 21.9242 39.7061 21.9711C39.3517 22.0439 39.3085 21.9163 39.369 20.9759ZM73.0951 34.3132C67.0838 30.9804 61.1236 27.5272 61.1236 27.3773C61.1236 27.0689 61.584 27.1363 65.2204 27.976C67.1076 28.4119 69.5618 28.9715 70.6742 29.2197C75.2831 30.2482 76.0373 30.4533 76.1182 30.7009C76.1649 30.8438 75.8845 31.3232 75.4953 31.7667C74.884 32.4627 74.8391 32.5925 75.1663 32.7179C75.3746 32.7979 77.5333 32.3766 79.9636 31.782C85.3618 30.461 85.385 30.4563 84.9438 30.738C84.2009 31.2127 74.7766 34.5971 74.2067 34.594C73.8706 34.5922 73.3703 34.4659 73.0951 34.3132ZM87.4602 33.4849C88.2769 33.1268 92.5515 31.9466 97.5281 30.7052C98.6566 30.4237 99.1029 30.4037 98.8578 30.6459C98.7339 30.7681 94.5973 32.4144 91.9101 33.4107C89.5009 34.304 89.3519 34.4226 86.2479 37.9111C85.0112 39.3013 83.8546 40.4385 83.678 40.4385C83.5014 40.4385 83.302 40.2615 83.2351 40.0453C82.9436 39.102 82.7667 38.9773 81.8274 39.0537C81.0479 39.1171 80.8996 39.0629 80.9029 38.7167C80.9052 38.4898 81.2843 37.9926 81.7456 37.6116C84.1083 35.6607 86.5982 33.8625 87.4602 33.4849ZM114.181 39.3161C114.774 38.6448 115.059 38.5109 116.145 38.3943C122.155 37.7491 128.558 39.0827 131.76 41.6463C132.931 42.5838 133.936 44.0807 134.083 45.1064L134.203 45.9426L133.28 44.8953C131.526 42.9026 128.659 41.4508 125.173 40.7899C122.64 40.3093 117.405 40.3203 115.173 40.8105C114.241 41.0154 113.42 41.1239 113.348 41.0523C113.125 40.8292 113.458 40.135 114.181 39.3161ZM24.3883 44.9737C24.7333 44.2709 25.251 43.1654 25.5387 42.5166C25.8263 41.8678 26.1894 41.3376 26.3454 41.3383C26.5016 41.3389 26.9326 41.5822 27.3034 41.8792L27.9775 42.4189L27.3553 43.6192C25.9973 46.2385 25.5259 46.8368 24.7607 46.9118C23.7382 47.012 23.6398 46.4989 24.3883 44.9737ZM4.26966 46.0516C4.26966 45.6164 5.73776 44.2642 7.0654 43.4768C8.33439 42.7244 9.66292 42.4312 9.66292 42.9039C9.66292 43.0243 9.3636 43.2777 8.99753 43.4669C8.63169 43.656 7.76315 44.3662 7.06742 45.0451C6.03506 46.0529 5.66202 46.2796 5.03618 46.2796C4.6146 46.2796 4.26966 46.1769 4.26966 46.0516ZM19.7108 54.1272C20.8652 51.7831 22.7166 50.1759 25.0047 49.5318C25.7479 49.3224 26.7778 49.2357 27.8067 49.2954C30.7564 49.4666 33.1609 51.0361 34.6301 53.749C35.3566 55.0907 35.3908 55.2594 35.3919 57.5125C35.3933 59.6684 35.3382 59.9777 34.7528 61.1071C33.8674 62.8156 32.5103 64.1467 30.7899 64.9946C29.4548 65.6524 29.1535 65.7119 27.1944 65.7051C25.3169 65.6986 24.9013 65.6213 23.7858 65.0714C21.8072 64.0957 20.7894 63.0879 19.8378 61.1621C19.0551 59.5783 18.9888 59.2936 18.9892 57.5179C18.9894 55.8045 19.069 55.4306 19.7108 54.1272ZM51.9742 53.9661C53.1396 51.755 54.8827 50.2525 57.1429 49.5115C58.667 49.0117 61.442 49.2368 62.9681 49.9838C64.6499 50.8071 66.1472 52.3328 67.0272 54.1202C67.6719 55.4293 67.7521 55.804 67.7524 57.5071C67.7528 59.1808 67.6656 59.6061 67.0602 60.8831C66.2108 62.6752 64.6847 64.2415 62.9748 65.0766C61.8402 65.6306 61.429 65.7067 59.5506 65.7094C57.6697 65.7121 57.2495 65.6357 56.0175 65.0669C54.3751 64.3084 52.5769 62.5309 51.8414 60.9388C51.4328 60.0545 51.3483 59.4668 51.3483 57.5125C51.3483 55.3659 51.4047 55.0467 51.9742 53.9661ZM0 65.6002V57.5125V49.4248H2.10472H4.20944L4.72 50.8289C6.21483 54.9388 8.39281 60.2163 8.52787 60.0557C8.61304 59.9543 9.36405 58.1023 10.1969 55.9399C11.0294 53.7776 11.9535 51.4524 12.2499 50.7728L12.7888 49.5372L14.8214 49.4724L16.8539 49.408V57.4876C16.8539 64.7735 16.818 65.5744 16.4879 65.64C16.2867 65.68 15.4018 65.662 14.5216 65.6002L12.9214 65.4879L12.8802 63.0167C12.8578 61.6575 12.8274 60.4443 12.813 60.3207C12.7984 60.1972 12.3112 61.2596 11.7303 62.6815C11.1494 64.1033 10.5924 65.3924 10.4924 65.5459C10.3703 65.7332 9.66135 65.8249 8.33461 65.8249H6.35865L5.2854 63.0167C4.69506 61.4721 4.14921 60.2084 4.07236 60.2084C3.9955 60.2084 3.96854 61.4216 4.01236 62.9043L4.09236 65.6002H2.04607H0ZM36.5169 53.3049L36.4519 51.365L36.387 49.4248H43.5955H50.804L50.7391 51.3719L50.6742 53.3188L48.2023 53.3377L45.7303 53.3563L45.618 59.5345L45.5056 65.7126L43.6517 65.7777C42.2614 65.8267 41.7928 65.7705 41.778 65.553C41.767 65.3938 41.7751 62.6233 41.7955 59.3967C41.8303 53.9371 41.805 53.5194 41.429 53.3752C41.2065 53.2901 40.0106 53.2393 38.7708 53.2627L36.5169 53.3049ZM31.5694 57.6249C31.5742 55.8595 30.9667 54.6803 29.6425 53.8832C27.6569 52.6878 25.4402 52.9666 23.9948 54.5931C23.067 55.6373 22.8135 56.5355 22.9742 58.2081C23.1746 60.2934 24.9834 61.8738 27.1836 61.8864C29.7398 61.9008 31.5629 60.1293 31.5694 57.6249ZM63.778 57.8763C63.9214 55.6241 62.8227 53.9483 60.811 53.351C60.1964 53.1685 59.5856 53.0297 59.4535 53.0423C56.9668 53.2804 55.2499 54.9874 55.0996 57.3708C55.02 58.6327 55.0757 58.8412 55.7647 59.8589C56.7874 61.369 58.116 62.0587 59.7283 61.9165C61.1499 61.7911 62.0721 61.2913 62.9998 60.144C63.5674 59.4419 63.7034 59.0454 63.778 57.8763Z" fill="#FCD702"/>
</svg>
